<svg xmlns="http://www.w3.org/2000/svg" viewBox="0 0 271.25 271.71"><defs><style>.cls-1{fill:#463a8f;}.cls-2,.cls-3{fill:#efeded;}.cls-3{font-size:17.79px;font-family:JetBrainsMono-Medium, JetBrains Mono;font-weight:500;}</style></defs><title>Asset 9</title><g id="Layer_2" data-name="Layer 2"><g id="Livello_1" data-name="Livello 1"><rect class="cls-1" width="271.25" height="271.71"/><path class="cls-2" d="M73.92,115.75,80,117.12C77.08,128.85,68.63,133,59.29,133c-12.84,0-21.53-8.25-21.53-20.53,0-12.45,8.69-20.69,21.53-20.69,10,0,18,4.76,20.72,15.85L73.94,109a6.81,6.81,0,0,1-7.39-3c-1.39-2.41-3.64-3.3-7.26-3.3-6.26,0-9.18,3.09-9.18,9.75,0,6.5,2.92,9.59,9.18,9.59,3.58,0,5.81-.9,7.22-3.31a6.83,6.83,0,0,1,7.41-3"/><path class="cls-2" d="M142.85,116.16H119.33c.74,5.4,3.34,7.62,8.54,7.62,2.48,0,4.14-.49,5.52-1.82a7,7,0,0,1,7.08-1.49l5.68,2c-2.76,6.81-8.86,10.54-18.61,10.54-12.59,0-21-8.08-21-20.29,0-12.53,8.28-20.93,20.63-20.93,12,0,19.91,8.09,19.91,20.29v0a4.13,4.13,0,0,1-4.19,4.08m-23.52-7.84h15.52c-.08-5.79-2.51-7.77-7.47-7.77s-7.4,2.22-8,7.77"/><path class="cls-2" d="M195.23,92.54v39.64H182.87V123.3c-2.27,6.26-6.9,9.67-13.4,9.67-11.62,0-18-8.24-18-20.53,0-12.45,6.09-20.69,17.23-20.69,6.9,0,11.86,3.49,14.21,10V99.28a6.83,6.83,0,0,1,6.91-6.74Zm-11.95,19.9c0-6.66-3.17-9.75-9.91-9.75-6.5,0-9.59,3.09-9.59,9.75,0,6.5,3.09,9.59,9.59,9.59,6.74,0,9.91-3.09,9.91-9.59"/><path class="cls-2" d="M205,132.18V106a13.66,13.66,0,0,1,13.81-13.48h14.71v4.2a6.82,6.82,0,0,1-6.91,6.74h-9.26v28.7Z"/><path class="cls-2" d="M203.51,179.7l-4.84,10.76a6.92,6.92,0,0,1-6.19,3.74H182.3l13.57-19.81-13.48-19.82h10.35a6.74,6.74,0,0,1,6.18,3.73c1.22,2.65,4.59,10.54,4.59,10.54s3.88-7.93,5.14-10.61a6.75,6.75,0,0,1,6.15-3.66h10.25l-13.57,19.82,13.57,19.81H214.79a6.93,6.93,0,0,1-6.14-3.64Z"/><path class="cls-2" d="M108.93,184.08c-6.74,0-9.91-3.09-9.91-9.59,0-6.66,3.17-9.75,9.91-9.75,6.5,0,9.59,3.09,9.59,9.75,0,6.5-3.09,9.59-9.59,9.59M99.43,76.69H94a6.82,6.82,0,0,0-6.9,6.74v110.8H99.43v-8.88c2.27,6.26,6.9,9.67,13.41,9.67,11.62,0,18-8.24,18-20.53,0-12.44-6.09-20.69-17.22-20.69-6.91,0-11.87,3.49-14.22,10Z"/><path class="cls-2" d="M180,174.49C180,187.25,170,195,157.92,195s-22.1-7.77-22.1-20.53,10.07-20.69,22.1-20.69,22.1,7.85,22.1,20.69m-12.35,0c0-6.66-3.09-9.75-9.75-9.75s-9.75,3.09-9.75,9.75c0,6.5,3.09,9.59,9.75,9.59s9.75-3.09,9.75-9.59"/><text class="cls-3" transform="translate(137.11 163.09)"> </text><path class="cls-2" d="M59.17,169.74H50.94l-1.55,4.43h-5l7.39-20.42h6.67l7.33,20.42h-5Zm-1.41-4.06-1.55-4.44-1.14-3.64-1.17,3.64-1.55,4.44Z"/><rect class="cls-2" x="68.44" y="153.75" width="4.85" height="20.43"/><rect class="cls-2" x="44.37" y="187.69" width="28.92" height="6.56"/></g></g></svg>