<svg xmlns="http://www.w3.org/2000/svg" viewBox="0 0 827.51 124.2"><defs><style>.cls-1{fill:#463a8f;}</style></defs><title>Asset 1</title><g id="Layer_2" data-name="Layer 2"><g id="Livello_1" data-name="Livello 1"><path class="cls-1" d="M702.52,90.39l-10.68,23.74a15.31,15.31,0,0,1-13.67,8.27H655.72l29.94-43.73L655.89,34.94h22.86c5.77,0,11.27,3.08,13.64,8.22,2.69,5.84,10.13,23.26,10.13,23.26S711.07,48.93,713.86,43c2.4-5.06,7.85-8.07,13.57-8.07H750L720.09,78.67,750,122.4H727.39a15.3,15.3,0,0,1-13.54-8Z"/><path class="cls-1" d="M79.81,86.2l13.43,3c-6.45,25.89-25.1,35-45.72,35C19.19,124.2,0,106,0,78.89,0,51.43,19.19,33.24,47.52,33.24c22.06,0,39.81,10.49,45.72,35l-13.38,3c-6.32,1.42-13.12-1.07-16.32-6.57-3.07-5.3-8-7.27-16-7.27-13.81,0-20.26,6.82-20.26,21.51,0,14.34,6.45,21.17,20.26,21.17,7.89,0,12.81-2,15.93-7.32,3.22-5.5,10-7.95,16.36-6.54"/><path class="cls-1" d="M124.08,0h12V122.45H108.84V14.88A15.07,15.07,0,0,1,124.08,0"/><path class="cls-1" d="M180,69.8h34.25c-.17-12.78-5.55-17.15-16.49-17.15S181.46,57.55,180,69.8m51.91,17.31H180c1.62,11.9,7.36,16.8,18.84,16.8,5.47,0,9.13-1.06,12.18-4a15.35,15.35,0,0,1,15.63-3.3l12.53,4.32c-6.1,15-19.55,23.26-41.06,23.26-27.8,0-46.45-17.83-46.45-44.78,0-27.63,18.29-46.17,45.55-46.17,26.36,0,43.93,17.84,43.93,44.78v.09a9.12,9.12,0,0,1-9.24,9"/><path class="cls-1" d="M321.14,78.89c0-14.69-7-21.51-21.88-21.51-14.34,0-21.16,6.82-21.16,21.51,0,14.34,6.82,21.17,21.16,21.17,14.89,0,21.88-6.83,21.88-21.17M347.5,35v87.46H320.24v-19.6c-5,13.83-15.24,21.35-29.58,21.35-25.64,0-39.81-18.2-39.81-45.31,0-27.46,13.45-45.65,38-45.65,15.24,0,26.17,7.69,31.37,22V49.86A15.07,15.07,0,0,1,335.49,35Z"/><path class="cls-1" d="M369,122.45V64.72C369,48.3,382.65,35,399.49,35H432v9.26A15.07,15.07,0,0,1,416.7,59.13H396.27v63.32Z"/><path class="cls-1" d="M514.79,78.89c0-14.69-6.82-21.51-21.16-21.51-14.89,0-21.88,6.82-21.88,21.51,0,14.34,7,21.17,21.88,21.17,14.34,0,21.16-6.83,21.16-21.17m27.26,0c0,27.11-14.17,45.31-39.81,45.31-14.35,0-24.57-7.52-29.59-21.35v19.6H445.39V0h12a15.07,15.07,0,0,1,15.25,14.88v40.4c5.2-14.35,16.14-22,31.38-22,24.56,0,38,18.19,38,45.65"/><path class="cls-1" d="M623.42,78.89c0-14.69-6.81-21.51-21.51-21.51s-21.52,6.82-21.52,21.51c0,14.34,6.81,21.17,21.52,21.17s21.51-6.83,21.51-21.17m27.26,0c0,28.16-22.24,45.31-48.77,45.31s-48.78-17.15-48.78-45.31c0-28.34,22.24-45.65,48.78-45.65s48.77,17.31,48.77,45.65"/><path class="cls-1" d="M793.94,60.7l-3.37-9.59-2.46-7.89-2.52,7.89-3.36,9.59Zm3,8.77H779.19l-3.37,9.6H765l16-44.18h14.43l15.85,44.18H800.34Z"/><rect class="cls-1" x="817.03" y="34.89" width="10.48" height="44.18"/><rect class="cls-1" x="764.96" y="108.3" width="62.55" height="14.17"/></g></g></svg>